<svg xmlns="http://www.w3.org/2000/svg" xmlns:xlink="http://www.w3.org/1999/xlink" version="1.1" width="256" height="256" viewBox="0 0 256 256" xml:space="preserve">

<defs>
</defs>
<g style="stroke: none; stroke-width: 0; stroke-dasharray: none; stroke-linecap: butt; stroke-linejoin: miter; stroke-miterlimit: 10; fill: none; fill-rule: nonzero; opacity: 1;" transform="translate(1.4065934065934016 1.4065934065934016) scale(2.81 2.81)" >
	<path d="M 76.31 88.179 l 9.82 -4.954 c 4.671 -2.356 5.231 -8.803 1.037 -11.93 L 72.343 60.244 c -2.236 -1.667 -5.244 -1.856 -7.671 -0.484 l -4.306 2.434 c -2.065 1.167 -4.595 1.244 -6.689 0.13 c -11.312 -6.022 -19.978 -14.688 -26 -26 c -1.115 -2.094 -1.038 -4.624 0.13 -6.689 l 2.434 -4.306 c 1.372 -2.427 1.182 -5.436 -0.484 -7.671 L 18.705 2.833 C 15.578 -1.361 9.131 -0.801 6.775 3.87 l -4.954 9.82 c -2.315 4.589 -2.443 9.999 -0.27 14.658 c 12.744 27.323 32.778 47.357 60.101 60.101 C 66.311 90.622 71.721 90.494 76.31 88.179 z" style="stroke: none; stroke-width: 1; stroke-dasharray: none; stroke-linecap: butt; stroke-linejoin: miter; stroke-miterlimit: 10; fill: rgb(44,57,150); fill-rule: nonzero; opacity: 1;" transform=" matrix(1 0 0 1 0 0) " stroke-linecap="round" />
</g>
</svg>